<mxfile host="65bd71144e">
    <diagram id="W9O1iImb4MWXxn7yZl5L" name="Page-1">
        <mxGraphModel dx="1596" dy="1524" grid="1" gridSize="10" guides="1" tooltips="1" connect="1" arrows="1" fold="1" page="1" pageScale="1" pageWidth="850" pageHeight="1100" math="0" shadow="0">
            <root>
                <mxCell id="0"/>
                <mxCell id="1" parent="0"/>
                <mxCell id="2" value="" style="swimlane;childLayout=stackLayout;resizeParent=1;resizeParentMax=0;startSize=20;html=1;fillColor=#3399FF;fontColor=#ffffff;strokeColor=#006EAF;" vertex="1" parent="1">
                    <mxGeometry x="40" y="-20" width="750" height="480" as="geometry"/>
                </mxCell>
                <mxCell id="3" value="&lt;font&gt;Controller&lt;/font&gt;" style="swimlane;startSize=20;html=1;fillColor=#CCCCFF;fontColor=#000000;strokeColor=#0a0a0a;gradientColor=none;swimlaneFillColor=#CCCCFF;" vertex="1" parent="2">
                    <mxGeometry y="20" width="200" height="460" as="geometry"/>
                </mxCell>
                <mxCell id="20" style="edgeStyle=none;html=1;exitX=0.5;exitY=1;exitDx=0;exitDy=0;exitPerimeter=0;entryX=0.5;entryY=0;entryDx=0;entryDy=0;entryPerimeter=0;strokeColor=#000000;fontColor=#000000;" edge="1" parent="3" source="12" target="17">
                    <mxGeometry relative="1" as="geometry"/>
                </mxCell>
                <mxCell id="12" value="&lt;span style=&quot;color: rgb(0, 0, 0);&quot;&gt;Initialisatie&lt;/span&gt;" style="shape=note;whiteSpace=wrap;html=1;backgroundOutline=1;darkOpacity=0.05;strokeColor=#36393d;fillColor=#ffff88;" vertex="1" parent="3">
                    <mxGeometry x="30" y="30" width="150" height="60" as="geometry"/>
                </mxCell>
                <mxCell id="21" style="edgeStyle=none;html=1;exitX=0.5;exitY=1;exitDx=0;exitDy=0;exitPerimeter=0;entryX=0.5;entryY=0;entryDx=0;entryDy=0;entryPerimeter=0;strokeColor=#000000;fontColor=#000000;" edge="1" parent="3" source="17" target="18">
                    <mxGeometry relative="1" as="geometry"/>
                </mxCell>
                <mxCell id="17" value="&lt;font color=&quot;#000000&quot;&gt;Recept ophalen&lt;/font&gt;" style="shape=note;whiteSpace=wrap;html=1;backgroundOutline=1;darkOpacity=0.05;strokeColor=#36393d;fillColor=#ffff88;" vertex="1" parent="3">
                    <mxGeometry x="30" y="120" width="150" height="60" as="geometry"/>
                </mxCell>
                <mxCell id="22" style="edgeStyle=none;html=1;exitX=0.5;exitY=1;exitDx=0;exitDy=0;exitPerimeter=0;entryX=0.5;entryY=0;entryDx=0;entryDy=0;entryPerimeter=0;strokeColor=#000000;fontColor=#000000;" edge="1" parent="3" source="18" target="19">
                    <mxGeometry relative="1" as="geometry"/>
                </mxCell>
                <mxCell id="18" value="&lt;font color=&quot;#000000&quot;&gt;Recept tonen&lt;/font&gt;" style="shape=note;whiteSpace=wrap;html=1;backgroundOutline=1;darkOpacity=0.05;strokeColor=#36393d;fillColor=#ffff88;" vertex="1" parent="3">
                    <mxGeometry x="30" y="210" width="150" height="60" as="geometry"/>
                </mxCell>
                <mxCell id="37" value="" style="edgeStyle=none;html=1;strokeColor=#000000;fontColor=#000000;" edge="1" parent="3" source="19" target="36">
                    <mxGeometry relative="1" as="geometry"/>
                </mxCell>
                <mxCell id="19" value="&lt;br&gt;Opmerking schrijven" style="shape=note;whiteSpace=wrap;html=1;backgroundOutline=1;darkOpacity=0.05;strokeColor=#36393d;fillColor=#ffff88;fontColor=#000000;labelBackgroundColor=none;" vertex="1" parent="3">
                    <mxGeometry x="30" y="300" width="150" height="60" as="geometry"/>
                </mxCell>
                <mxCell id="36" value="&lt;br&gt;Opmerking plaatsen" style="shape=note;whiteSpace=wrap;html=1;backgroundOutline=1;darkOpacity=0.05;strokeColor=#36393d;fillColor=#ffff88;fontColor=#000000;labelBackgroundColor=none;" vertex="1" parent="3">
                    <mxGeometry x="30" y="390" width="150" height="60" as="geometry"/>
                </mxCell>
                <mxCell id="4" value="&lt;font color=&quot;#000000&quot;&gt;Business Logic&lt;/font&gt;" style="swimlane;startSize=20;html=1;fillColor=#6666FF;strokeColor=#000000;swimlaneFillColor=#6666FF;fontColor=#ffffff;" vertex="1" parent="2">
                    <mxGeometry x="200" y="20" width="350" height="460" as="geometry"/>
                </mxCell>
                <mxCell id="25" value="&lt;font color=&quot;#000000&quot;&gt;Selecteer recept&lt;/font&gt;" style="shape=note;whiteSpace=wrap;html=1;backgroundOutline=1;darkOpacity=0.05;strokeColor=#36393d;fillColor=#ffff88;" vertex="1" parent="4">
                    <mxGeometry x="32.5" y="120" width="150" height="60" as="geometry"/>
                </mxCell>
                <mxCell id="34" style="edgeStyle=none;html=1;entryX=0.5;entryY=0;entryDx=0;entryDy=0;entryPerimeter=0;strokeColor=#000000;fontColor=#000000;" edge="1" parent="4" target="32">
                    <mxGeometry relative="1" as="geometry">
                        <mxPoint x="190" y="250" as="sourcePoint"/>
                        <Array as="points">
                            <mxPoint x="108" y="250"/>
                        </Array>
                    </mxGeometry>
                </mxCell>
                <mxCell id="29" value="&lt;font color=&quot;#000000&quot;&gt;Ophalen gebruiker&lt;/font&gt;" style="shape=note;whiteSpace=wrap;html=1;backgroundOutline=1;darkOpacity=0.05;strokeColor=#36393d;fillColor=#ffff88;" vertex="1" parent="4">
                    <mxGeometry x="185" y="220" width="150" height="60" as="geometry"/>
                </mxCell>
                <mxCell id="32" value="&lt;font color=&quot;#000000&quot;&gt;Ophalen opmerking-tekstveld&lt;/font&gt;" style="shape=note;whiteSpace=wrap;html=1;backgroundOutline=1;darkOpacity=0.05;strokeColor=#36393d;fillColor=#ffff88;" vertex="1" parent="4">
                    <mxGeometry x="30" y="300" width="155" height="60" as="geometry"/>
                </mxCell>
                <mxCell id="5" value="&lt;font color=&quot;#000000&quot;&gt;Model&lt;/font&gt;" style="swimlane;startSize=20;html=1;fillColor=#99CCFF;swimlaneFillColor=#99CCFF;strokeColor=#000000;" vertex="1" parent="2">
                    <mxGeometry x="550" y="20" width="200" height="460" as="geometry"/>
                </mxCell>
                <mxCell id="23" value="RECEPT" style="swimlane;labelBackgroundColor=none;strokeColor=#10739e;fillColor=#b1ddf0;fontColor=#000000;startSize=23;" vertex="1" parent="5">
                    <mxGeometry x="40" y="40" width="140" height="150" as="geometry"/>
                </mxCell>
                <mxCell id="24" value="recept id&lt;br&gt;record_type [O, B, W, F]&lt;br&gt;gerecht_id&lt;br&gt;user_id&lt;br&gt;datum&lt;br&gt;nummeriekveld&lt;br&gt;tekstveld" style="text;html=1;strokeColor=none;fillColor=none;align=center;verticalAlign=middle;whiteSpace=wrap;rounded=0;labelBackgroundColor=none;fontColor=#000000;" vertex="1" parent="23">
                    <mxGeometry y="30" width="140" height="110" as="geometry"/>
                </mxCell>
                <mxCell id="28" value="&lt;font color=&quot;#000000&quot;&gt;Selecteer gebruiker&lt;/font&gt;" style="shape=note;whiteSpace=wrap;html=1;backgroundOutline=1;darkOpacity=0.05;strokeColor=#36393d;fillColor=#ffff88;" vertex="1" parent="5">
                    <mxGeometry x="35" y="220" width="150" height="60" as="geometry"/>
                </mxCell>
                <mxCell id="30" value="&lt;font color=&quot;#000000&quot;&gt;Selecteer record_type&lt;br&gt;Opmerking&lt;br&gt;&lt;/font&gt;" style="shape=note;whiteSpace=wrap;html=1;backgroundOutline=1;darkOpacity=0.05;strokeColor=#36393d;fillColor=#ffff88;" vertex="1" parent="5">
                    <mxGeometry x="35" y="300" width="150" height="60" as="geometry"/>
                </mxCell>
                <mxCell id="26" style="edgeStyle=none;html=1;exitX=0;exitY=0.25;exitDx=0;exitDy=0;entryX=0.5;entryY=0;entryDx=0;entryDy=0;entryPerimeter=0;strokeColor=#000000;fontColor=#000000;" edge="1" parent="2" source="24" target="25">
                    <mxGeometry relative="1" as="geometry">
                        <Array as="points">
                            <mxPoint x="308" y="118"/>
                        </Array>
                    </mxGeometry>
                </mxCell>
                <mxCell id="27" style="edgeStyle=none;html=1;entryX=0;entryY=0;entryDx=150;entryDy=30;entryPerimeter=0;strokeColor=#000000;fontColor=#000000;" edge="1" parent="2" source="25" target="17">
                    <mxGeometry relative="1" as="geometry"/>
                </mxCell>
                <mxCell id="31" style="edgeStyle=none;html=1;exitX=0;exitY=0.5;exitDx=0;exitDy=0;exitPerimeter=0;strokeColor=#000000;fontColor=#000000;" edge="1" parent="2" source="28" target="29">
                    <mxGeometry relative="1" as="geometry"/>
                </mxCell>
                <mxCell id="33" style="edgeStyle=none;html=1;exitX=0;exitY=0.5;exitDx=0;exitDy=0;exitPerimeter=0;entryX=0;entryY=0;entryDx=150;entryDy=30;entryPerimeter=0;strokeColor=#000000;fontColor=#000000;" edge="1" parent="2" source="30" target="32">
                    <mxGeometry relative="1" as="geometry"/>
                </mxCell>
                <mxCell id="38" style="edgeStyle=none;html=1;exitX=0;exitY=0;exitDx=150;exitDy=30;exitPerimeter=0;strokeColor=#000000;fontColor=#000000;" edge="1" parent="2" source="19" target="32">
                    <mxGeometry relative="1" as="geometry"/>
                </mxCell>
                <mxCell id="39" style="edgeStyle=none;html=1;entryX=0;entryY=0;entryDx=150;entryDy=30;entryPerimeter=0;strokeColor=#000000;fontColor=#000000;" edge="1" parent="2" source="32" target="36">
                    <mxGeometry relative="1" as="geometry">
                        <Array as="points">
                            <mxPoint x="310" y="440"/>
                        </Array>
                    </mxGeometry>
                </mxCell>
                <mxCell id="7" value="" style="shape=actor;whiteSpace=wrap;html=1;fillColor=#66B2FF;strokeColor=#000000;" vertex="1" parent="1">
                    <mxGeometry x="-165" y="10" width="70" height="110" as="geometry"/>
                </mxCell>
                <mxCell id="8" value="Actor" style="text;html=1;strokeColor=none;fillColor=none;align=center;verticalAlign=middle;whiteSpace=wrap;rounded=0;" vertex="1" parent="1">
                    <mxGeometry x="-160" y="120" width="60" height="30" as="geometry"/>
                </mxCell>
                <mxCell id="11" value="" style="endArrow=classic;html=1;fontColor=#000000;strokeColor=#000000;" edge="1" parent="1">
                    <mxGeometry width="50" height="50" relative="1" as="geometry">
                        <mxPoint x="-80" y="50" as="sourcePoint"/>
                        <mxPoint x="70" y="50" as="targetPoint"/>
                    </mxGeometry>
                </mxCell>
                <mxCell id="40" value="" style="ellipse;whiteSpace=wrap;html=1;aspect=fixed;labelBackgroundColor=none;strokeColor=#0e8088;fillColor=#b0e3e6;strokeWidth=2;" vertex="1" parent="1">
                    <mxGeometry x="-155" y="395" width="50" height="50" as="geometry"/>
                </mxCell>
                <mxCell id="41" style="edgeStyle=none;html=1;exitX=0;exitY=0.5;exitDx=0;exitDy=0;exitPerimeter=0;entryX=1;entryY=0.5;entryDx=0;entryDy=0;strokeColor=#000000;fontColor=#000000;" edge="1" parent="1" source="36" target="40">
                    <mxGeometry relative="1" as="geometry"/>
                </mxCell>
            </root>
        </mxGraphModel>
    </diagram>
</mxfile>